M48
INCH,TZ
VER,1
FMAT,2
DETECT,ON
ATC,ON
T1C0.03500
T2C0.03937
T3C0.03543
T4C0.03917
T5C0.02362
T6C0.04667
%
T1
X3.35000Y1.28000
X3.45000
X3.55000
X3.65000
X3.75000
X4.05000
X4.15000
X4.25000
X4.35000
X4.45000
X4.75000
X4.85000
X3.35000Y1.38000
X3.45000
X3.55000
X3.65000
X3.75000
X4.05000
X4.15000
X4.25000
X4.35000
X4.45000
X4.75000
X4.85000
X3.35000Y1.48000
X3.45000
X3.55000
X3.65000
X3.75000
X4.05000
X4.15000
X4.25000
X4.35000
X4.45000
X4.75000
X4.85000
X3.35000Y1.58000
X3.45000
X3.55000
X3.65000
X3.75000
X4.05000
X4.15000
X4.25000
X4.35000
X4.45000
X4.75000
X4.85000
X3.35000Y1.68000
X3.45000
X3.55000
X3.65000
X3.75000
X4.05000
X4.15000
X4.25000
X4.35000
X4.45000
X4.75000
X4.85000
X3.35000Y1.78000
X3.45000
X3.55000
X3.65000
X3.75000
X4.05000
X4.15000
X4.25000
X4.35000
X4.45000
X4.75000
X4.85000
X3.35000Y1.88000
X3.45000
X3.55000
X3.65000
X3.75000
X4.05000
X4.15000
X4.25000
X4.35000
X4.45000
X4.75000
X4.85000
X3.35000Y1.98000
X3.45000
X3.55000
X3.65000
X3.75000
X4.05000
X4.15000
X4.25000
X4.35000
X4.45000
X4.75000
X4.85000
X3.35000Y2.08000
X3.45000
X3.55000
X3.65000
X3.75000
X4.05000
X4.15000
X4.25000
X4.35000
X4.45000
X4.75000
X4.85000
X3.35000Y2.18000
X3.45000
X3.55000
X3.65000
X3.75000
X4.05000
X4.15000
X4.25000
X4.35000
X4.45000
X4.75000
X4.85000
X3.35000Y2.28000
X3.45000
X3.55000
X3.65000
X3.75000
X4.05000
X4.15000
X4.25000
X4.35000
X4.45000
X4.75000
X4.85000
X3.35000Y2.38000
X3.45000
X3.55000
X3.65000
X3.75000
X4.05000
X4.15000
X4.25000
X4.35000
X4.45000
X4.75000
X4.85000
X3.35000Y2.48000
X3.45000
X3.55000
X3.65000
X3.75000
X4.05000
X4.15000
X4.25000
X4.35000
X4.45000
X4.75000
X4.85000
X3.35000Y2.58000
X3.45000
X3.55000
X3.65000
X3.75000
X4.05000
X4.15000
X4.25000
X4.35000
X4.45000
X4.75000
X4.85000
X3.35000Y2.68000
X3.45000
X3.55000
X3.65000
X3.75000
X4.05000
X4.15000
X4.25000
X4.35000
X4.45000
X4.75000
X4.85000
X3.35000Y2.78000
X3.45000
X3.55000
X3.65000
X3.75000
X4.05000
X4.15000
X4.25000
X4.35000
X4.45000
X4.75000
X4.85000
X2.26000Y1.02000
Y1.32000
Y1.12000
Y1.22000
X2.56000Y1.12000
Y1.32000
Y1.22000
Y1.02000
X2.12000Y1.10000
X2.00000Y1.32000
X1.28000Y1.48000
Y1.78000
Y1.58000
Y1.68000
X1.58000Y1.58000
Y1.78000
Y1.68000
Y1.48000
X2.37000Y1.63000
X1.92000Y2.26000
X2.22000
X2.02000
X2.12000
X2.02000Y1.96000
X2.22000
X2.12000
X1.92000
X2.68000Y2.02000
X1.60000Y2.32000
X2.02000Y2.50000
X2.12000Y2.40000
X2.22000
X2.32000
Y2.50000
X2.12000
X2.22000
X1.34000Y2.52000
X2.60000Y2.56000
T2
X1.69464Y0.72536
X1.62393Y0.65464
X1.76536
X2.83464Y2.46536
X2.76393Y2.39464
X2.90536
T3
X2.68000Y0.62819
Y1.14000
X1.96000Y0.68819
Y1.20000
X2.26197Y0.68315
Y0.88000
X2.82000Y1.23181
Y0.72000
X1.79803Y1.19685
Y1.00000
X1.65181Y1.04000
X1.14000
X1.14819Y1.18000
X1.66000
X0.98197Y1.26315
Y1.46000
X1.14819Y1.32000
X1.66000
X2.14000Y1.32819
Y1.84000
X2.68000Y1.28819
Y1.80000
X2.82000Y1.87181
Y1.36000
X1.14197Y1.46315
Y1.66000
X2.28157Y1.48000
X2.38000
X2.48000Y2.11181
Y1.60000
X1.00000Y1.66819
Y2.18000
X1.95685Y1.76197
X1.76000
X1.14000Y2.37181
Y1.86000
X1.26819Y1.94000
X1.78000
X1.27803Y2.25685
Y2.06000
X3.11181Y2.18000
X2.60000
X1.45685Y2.38197
X1.26000
X1.77181Y2.66000
X1.26000
X1.90819
X2.42000
T4
X2.12000Y1.20000
X1.90000Y1.32000
X2.27000Y1.63000
X2.68000Y1.92000
X1.70000Y2.32000
X2.02000Y2.40000
X1.44000Y2.52000
X2.60000Y2.66000
T5
X1.37000Y1.32000
T6
X1.76000Y1.50000
X1.96000
X1.86000
X1.68000Y2.14000
X1.58000
X1.48000
M30
